<svg xmlns="http://www.w3.org/2000/svg" width="16" height="16" viewBox="0 0 16 16" shape-rendering="crispEdges">
<rect width="16" height="16" fill="#0a0a1a"/>
  <rect x="2" y="1" width="1" height="1" fill="#ffaa00"/>
  <rect x="13" y="1" width="1" height="1" fill="#ffaa00"/>
  <rect x="5" y="2" width="1" height="1" fill="#ff4444"/>
  <rect x="10" y="2" width="1" height="1" fill="#ff4444"/>
  <rect x="6" y="2" width="1" height="1" fill="#ff8800"/>
  <rect x="9" y="2" width="1" height="1" fill="#ff8800"/>
  <rect x="3" y="3" width="1" height="1" fill="#222222"/>
  <rect x="12" y="3" width="1" height="1" fill="#222222"/>
  <rect x="5" y="3" width="1" height="1" fill="#ff8800"/>
  <rect x="10" y="3" width="1" height="1" fill="#ff8800"/>
  <rect x="7" y="3" width="1" height="1" fill="#ff4444"/>
  <rect x="8" y="3" width="1" height="1" fill="#ff4444"/>
  <rect x="4" y="4" width="1" height="1" fill="#ff0000"/>
  <rect x="11" y="4" width="1" height="1" fill="#ff0000"/>
  <rect x="6" y="4" width="1" height="1" fill="#ffffff"/>
  <rect x="9" y="4" width="1" height="1" fill="#ffffff"/>
  <rect x="2" y="5" width="1" height="1" fill="#ffffff"/>
  <rect x="13" y="5" width="1" height="1" fill="#ffffff"/>
  <rect x="3" y="5" width="1" height="1" fill="#ff4444"/>
  <rect x="12" y="5" width="1" height="1" fill="#ff4444"/>
  <rect x="5" y="5" width="1" height="1" fill="#222222"/>
  <rect x="10" y="5" width="1" height="1" fill="#222222"/>
  <rect x="6" y="5" width="1" height="1" fill="#330000"/>
  <rect x="9" y="5" width="1" height="1" fill="#330000"/>
  <rect x="7" y="5" width="1" height="1" fill="#ff0000"/>
  <rect x="8" y="5" width="1" height="1" fill="#ff0000"/>
  <rect x="3" y="6" width="1" height="1" fill="#222222"/>
  <rect x="12" y="6" width="1" height="1" fill="#222222"/>
  <rect x="5" y="6" width="1" height="1" fill="#222222"/>
  <rect x="10" y="6" width="1" height="1" fill="#222222"/>
  <rect x="3" y="7" width="1" height="1" fill="#ffaa00"/>
  <rect x="12" y="7" width="1" height="1" fill="#ffaa00"/>
  <rect x="4" y="7" width="1" height="1" fill="#ff4444"/>
  <rect x="11" y="7" width="1" height="1" fill="#ff4444"/>
  <rect x="2" y="8" width="1" height="1" fill="#222222"/>
  <rect x="13" y="8" width="1" height="1" fill="#222222"/>
  <rect x="3" y="8" width="1" height="1" fill="#222222"/>
  <rect x="12" y="8" width="1" height="1" fill="#222222"/>
  <rect x="5" y="8" width="1" height="1" fill="#330000"/>
  <rect x="10" y="8" width="1" height="1" fill="#330000"/>
  <rect x="6" y="8" width="1" height="1" fill="#222222"/>
  <rect x="9" y="8" width="1" height="1" fill="#222222"/>
  <rect x="7" y="8" width="1" height="1" fill="#ffffff"/>
  <rect x="8" y="8" width="1" height="1" fill="#ffffff"/>
  <rect x="4" y="9" width="1" height="1" fill="#ff0000"/>
  <rect x="11" y="9" width="1" height="1" fill="#ff0000"/>
  <rect x="3" y="10" width="1" height="1" fill="#ff8800"/>
  <rect x="12" y="10" width="1" height="1" fill="#ff8800"/>
  <rect x="2" y="11" width="1" height="1" fill="#ff0000"/>
  <rect x="13" y="11" width="1" height="1" fill="#ff0000"/>
  <rect x="5" y="11" width="1" height="1" fill="#ff8800"/>
  <rect x="10" y="11" width="1" height="1" fill="#ff8800"/>
  <rect x="7" y="11" width="1" height="1" fill="#ffffff"/>
  <rect x="8" y="11" width="1" height="1" fill="#ffffff"/>
  <rect x="3" y="12" width="1" height="1" fill="#ffffff"/>
  <rect x="12" y="12" width="1" height="1" fill="#ffffff"/>
  <rect x="4" y="12" width="1" height="1" fill="#ff4444"/>
  <rect x="11" y="12" width="1" height="1" fill="#ff4444"/>
  <rect x="5" y="12" width="1" height="1" fill="#ff0000"/>
  <rect x="10" y="12" width="1" height="1" fill="#ff0000"/>
  <rect x="7" y="12" width="1" height="1" fill="#ff0000"/>
  <rect x="8" y="12" width="1" height="1" fill="#ff0000"/>
  <rect x="2" y="13" width="1" height="1" fill="#ffffff"/>
  <rect x="13" y="13" width="1" height="1" fill="#ffffff"/>
  <rect x="3" y="13" width="1" height="1" fill="#ff4444"/>
  <rect x="12" y="13" width="1" height="1" fill="#ff4444"/>
  <rect x="4" y="14" width="1" height="1" fill="#ffffff"/>
  <rect x="11" y="14" width="1" height="1" fill="#ffffff"/>
  <rect x="5" y="14" width="1" height="1" fill="#ff8800"/>
  <rect x="10" y="14" width="1" height="1" fill="#ff8800"/>
  <rect x="6" y="14" width="1" height="1" fill="#ff4444"/>
  <rect x="9" y="14" width="1" height="1" fill="#ff4444"/>
  <rect x="7" y="14" width="1" height="1" fill="#222222"/>
  <rect x="8" y="14" width="1" height="1" fill="#222222"/>
  <rect x="7" y="4" width="2" height="1" fill="#ff0000"/>
  <rect x="7" y="8" width="2" height="1" fill="#222222"/>
  <rect x="7" y="9" width="2" height="1" fill="#ffffff"/>
  <rect x="7" y="12" width="2" height="1" fill="#ff4444"/>
  <rect x="7" y="13" width="2" height="1" fill="#ff0000"/>
</svg>