<svg xmlns="http://www.w3.org/2000/svg" width="16" height="16" viewBox="0 0 16 16" shape-rendering="crispEdges">
<rect width="16" height="16" fill="#0a0a1a"/>
  <rect x="2" y="1" width="1" height="1" fill="#44ff44"/>
  <rect x="13" y="1" width="1" height="1" fill="#44ff44"/>
  <rect x="3" y="1" width="1" height="1" fill="#111111"/>
  <rect x="12" y="1" width="1" height="1" fill="#111111"/>
  <rect x="4" y="1" width="1" height="1" fill="#003300"/>
  <rect x="11" y="1" width="1" height="1" fill="#003300"/>
  <rect x="7" y="1" width="1" height="1" fill="#44ff44"/>
  <rect x="8" y="1" width="1" height="1" fill="#44ff44"/>
  <rect x="3" y="2" width="1" height="1" fill="#aaffaa"/>
  <rect x="12" y="2" width="1" height="1" fill="#aaffaa"/>
  <rect x="4" y="2" width="1" height="1" fill="#aaffaa"/>
  <rect x="11" y="2" width="1" height="1" fill="#aaffaa"/>
  <rect x="6" y="2" width="1" height="1" fill="#00ff00"/>
  <rect x="9" y="2" width="1" height="1" fill="#00ff00"/>
  <rect x="7" y="2" width="1" height="1" fill="#111111"/>
  <rect x="8" y="2" width="1" height="1" fill="#111111"/>
  <rect x="4" y="3" width="1" height="1" fill="#003300"/>
  <rect x="11" y="3" width="1" height="1" fill="#003300"/>
  <rect x="6" y="3" width="1" height="1" fill="#ffffff"/>
  <rect x="9" y="3" width="1" height="1" fill="#ffffff"/>
  <rect x="2" y="4" width="1" height="1" fill="#aaffaa"/>
  <rect x="13" y="4" width="1" height="1" fill="#aaffaa"/>
  <rect x="2" y="5" width="1" height="1" fill="#00ff00"/>
  <rect x="13" y="5" width="1" height="1" fill="#00ff00"/>
  <rect x="3" y="5" width="1" height="1" fill="#44ff44"/>
  <rect x="12" y="5" width="1" height="1" fill="#44ff44"/>
  <rect x="5" y="5" width="1" height="1" fill="#003300"/>
  <rect x="10" y="5" width="1" height="1" fill="#003300"/>
  <rect x="6" y="5" width="1" height="1" fill="#44ff44"/>
  <rect x="9" y="5" width="1" height="1" fill="#44ff44"/>
  <rect x="4" y="6" width="1" height="1" fill="#003300"/>
  <rect x="11" y="6" width="1" height="1" fill="#003300"/>
  <rect x="5" y="6" width="1" height="1" fill="#00ff00"/>
  <rect x="10" y="6" width="1" height="1" fill="#00ff00"/>
  <rect x="4" y="7" width="1" height="1" fill="#00ff00"/>
  <rect x="11" y="7" width="1" height="1" fill="#00ff00"/>
  <rect x="6" y="7" width="1" height="1" fill="#88ff88"/>
  <rect x="9" y="7" width="1" height="1" fill="#88ff88"/>
  <rect x="2" y="8" width="1" height="1" fill="#44ff44"/>
  <rect x="13" y="8" width="1" height="1" fill="#44ff44"/>
  <rect x="4" y="8" width="1" height="1" fill="#ffffff"/>
  <rect x="11" y="8" width="1" height="1" fill="#ffffff"/>
  <rect x="5" y="8" width="1" height="1" fill="#88ff88"/>
  <rect x="10" y="8" width="1" height="1" fill="#88ff88"/>
  <rect x="6" y="8" width="1" height="1" fill="#00ff00"/>
  <rect x="9" y="8" width="1" height="1" fill="#00ff00"/>
  <rect x="7" y="8" width="1" height="1" fill="#44ff44"/>
  <rect x="8" y="8" width="1" height="1" fill="#44ff44"/>
  <rect x="5" y="9" width="1" height="1" fill="#88ff88"/>
  <rect x="10" y="9" width="1" height="1" fill="#88ff88"/>
  <rect x="6" y="9" width="1" height="1" fill="#88ff88"/>
  <rect x="9" y="9" width="1" height="1" fill="#88ff88"/>
  <rect x="7" y="9" width="1" height="1" fill="#003300"/>
  <rect x="8" y="9" width="1" height="1" fill="#003300"/>
  <rect x="2" y="10" width="1" height="1" fill="#aaffaa"/>
  <rect x="13" y="10" width="1" height="1" fill="#aaffaa"/>
  <rect x="3" y="10" width="1" height="1" fill="#44ff44"/>
  <rect x="12" y="10" width="1" height="1" fill="#44ff44"/>
  <rect x="3" y="11" width="1" height="1" fill="#44ff44"/>
  <rect x="12" y="11" width="1" height="1" fill="#44ff44"/>
  <rect x="4" y="11" width="1" height="1" fill="#111111"/>
  <rect x="11" y="11" width="1" height="1" fill="#111111"/>
  <rect x="2" y="12" width="1" height="1" fill="#ffffff"/>
  <rect x="13" y="12" width="1" height="1" fill="#ffffff"/>
  <rect x="3" y="12" width="1" height="1" fill="#00ff00"/>
  <rect x="12" y="12" width="1" height="1" fill="#00ff00"/>
  <rect x="2" y="13" width="1" height="1" fill="#00ff00"/>
  <rect x="13" y="13" width="1" height="1" fill="#00ff00"/>
  <rect x="6" y="13" width="1" height="1" fill="#ffffff"/>
  <rect x="9" y="13" width="1" height="1" fill="#ffffff"/>
  <rect x="7" y="13" width="1" height="1" fill="#44ff44"/>
  <rect x="8" y="13" width="1" height="1" fill="#44ff44"/>
  <rect x="3" y="14" width="1" height="1" fill="#44ff44"/>
  <rect x="12" y="14" width="1" height="1" fill="#44ff44"/>
  <rect x="4" y="14" width="1" height="1" fill="#ffffff"/>
  <rect x="11" y="14" width="1" height="1" fill="#ffffff"/>
  <rect x="6" y="14" width="1" height="1" fill="#88ff88"/>
  <rect x="9" y="14" width="1" height="1" fill="#88ff88"/>
  <rect x="7" y="1" width="2" height="1" fill="#88ff88"/>
  <rect x="7" y="3" width="2" height="1" fill="#88ff88"/>
  <rect x="7" y="7" width="2" height="1" fill="#ffffff"/>
  <rect x="7" y="8" width="2" height="1" fill="#00ff00"/>
  <rect x="7" y="9" width="2" height="1" fill="#003300"/>
  <rect x="7" y="11" width="2" height="1" fill="#00ff00"/>
  <rect x="7" y="13" width="2" height="1" fill="#ffffff"/>
</svg>