<svg xmlns="http://www.w3.org/2000/svg" width="16" height="16" viewBox="0 0 16 16" shape-rendering="crispEdges">
<rect width="16" height="16" fill="#0a0a1a"/>
  <rect x="2" y="1" width="1" height="1" fill="#8800ff"/>
  <rect x="13" y="1" width="1" height="1" fill="#8800ff"/>
  <rect x="4" y="1" width="1" height="1" fill="#440088"/>
  <rect x="11" y="1" width="1" height="1" fill="#440088"/>
  <rect x="2" y="2" width="1" height="1" fill="#220044"/>
  <rect x="13" y="2" width="1" height="1" fill="#220044"/>
  <rect x="4" y="2" width="1" height="1" fill="#ffffff"/>
  <rect x="11" y="2" width="1" height="1" fill="#ffffff"/>
  <rect x="7" y="2" width="1" height="1" fill="#ffffff"/>
  <rect x="8" y="2" width="1" height="1" fill="#ffffff"/>
  <rect x="2" y="3" width="1" height="1" fill="#ff00ff"/>
  <rect x="13" y="3" width="1" height="1" fill="#ff00ff"/>
  <rect x="6" y="3" width="1" height="1" fill="#ffffff"/>
  <rect x="9" y="3" width="1" height="1" fill="#ffffff"/>
  <rect x="4" y="4" width="1" height="1" fill="#8800ff"/>
  <rect x="11" y="4" width="1" height="1" fill="#8800ff"/>
  <rect x="2" y="5" width="1" height="1" fill="#cc00ff"/>
  <rect x="13" y="5" width="1" height="1" fill="#cc00ff"/>
  <rect x="6" y="5" width="1" height="1" fill="#ffffff"/>
  <rect x="9" y="5" width="1" height="1" fill="#ffffff"/>
  <rect x="7" y="5" width="1" height="1" fill="#cc00ff"/>
  <rect x="8" y="5" width="1" height="1" fill="#cc00ff"/>
  <rect x="3" y="6" width="1" height="1" fill="#ffffff"/>
  <rect x="12" y="6" width="1" height="1" fill="#ffffff"/>
  <rect x="6" y="6" width="1" height="1" fill="#8800ff"/>
  <rect x="9" y="6" width="1" height="1" fill="#8800ff"/>
  <rect x="7" y="6" width="1" height="1" fill="#220044"/>
  <rect x="8" y="6" width="1" height="1" fill="#220044"/>
  <rect x="5" y="7" width="1" height="1" fill="#ffccff"/>
  <rect x="10" y="7" width="1" height="1" fill="#ffccff"/>
  <rect x="7" y="7" width="1" height="1" fill="#220044"/>
  <rect x="8" y="7" width="1" height="1" fill="#220044"/>
  <rect x="3" y="8" width="1" height="1" fill="#220044"/>
  <rect x="12" y="8" width="1" height="1" fill="#220044"/>
  <rect x="5" y="8" width="1" height="1" fill="#440088"/>
  <rect x="10" y="8" width="1" height="1" fill="#440088"/>
  <rect x="7" y="8" width="1" height="1" fill="#8800ff"/>
  <rect x="8" y="8" width="1" height="1" fill="#8800ff"/>
  <rect x="5" y="9" width="1" height="1" fill="#ffffff"/>
  <rect x="10" y="9" width="1" height="1" fill="#ffffff"/>
  <rect x="7" y="9" width="1" height="1" fill="#ffccff"/>
  <rect x="8" y="9" width="1" height="1" fill="#ffccff"/>
  <rect x="4" y="10" width="1" height="1" fill="#440088"/>
  <rect x="11" y="10" width="1" height="1" fill="#440088"/>
  <rect x="5" y="10" width="1" height="1" fill="#cc00ff"/>
  <rect x="10" y="10" width="1" height="1" fill="#cc00ff"/>
  <rect x="6" y="10" width="1" height="1" fill="#cc00ff"/>
  <rect x="9" y="10" width="1" height="1" fill="#cc00ff"/>
  <rect x="5" y="11" width="1" height="1" fill="#ffffff"/>
  <rect x="10" y="11" width="1" height="1" fill="#ffffff"/>
  <rect x="7" y="11" width="1" height="1" fill="#cc00ff"/>
  <rect x="8" y="11" width="1" height="1" fill="#cc00ff"/>
  <rect x="3" y="12" width="1" height="1" fill="#ffffff"/>
  <rect x="12" y="12" width="1" height="1" fill="#ffffff"/>
  <rect x="5" y="12" width="1" height="1" fill="#ffccff"/>
  <rect x="10" y="12" width="1" height="1" fill="#ffccff"/>
  <rect x="7" y="12" width="1" height="1" fill="#cc00ff"/>
  <rect x="8" y="12" width="1" height="1" fill="#cc00ff"/>
  <rect x="2" y="14" width="1" height="1" fill="#cc00ff"/>
  <rect x="13" y="14" width="1" height="1" fill="#cc00ff"/>
  <rect x="4" y="14" width="1" height="1" fill="#220044"/>
  <rect x="11" y="14" width="1" height="1" fill="#220044"/>
  <rect x="7" y="1" width="2" height="1" fill="#440088"/>
  <rect x="7" y="2" width="2" height="1" fill="#220044"/>
  <rect x="7" y="3" width="2" height="1" fill="#440088"/>
  <rect x="7" y="5" width="2" height="1" fill="#220044"/>
  <rect x="7" y="6" width="2" height="1" fill="#8800ff"/>
  <rect x="7" y="7" width="2" height="1" fill="#220044"/>
  <rect x="7" y="8" width="2" height="1" fill="#ff00ff"/>
  <rect x="7" y="11" width="2" height="1" fill="#ffffff"/>
  <rect x="7" y="12" width="2" height="1" fill="#ffffff"/>
  <rect x="7" y="14" width="2" height="1" fill="#440088"/>
</svg>