<svg xmlns="http://www.w3.org/2000/svg" width="16" height="16" viewBox="0 0 16 16" shape-rendering="crispEdges">
<rect width="16" height="16" fill="#0a0a1a"/>
  <rect x="2" y="1" width="1" height="1" fill="#ffffff"/>
  <rect x="13" y="1" width="1" height="1" fill="#ffffff"/>
  <rect x="3" y="1" width="1" height="1" fill="#111111"/>
  <rect x="12" y="1" width="1" height="1" fill="#111111"/>
  <rect x="5" y="2" width="1" height="1" fill="#004488"/>
  <rect x="10" y="2" width="1" height="1" fill="#004488"/>
  <rect x="7" y="2" width="1" height="1" fill="#004488"/>
  <rect x="8" y="2" width="1" height="1" fill="#004488"/>
  <rect x="7" y="3" width="1" height="1" fill="#002244"/>
  <rect x="8" y="3" width="1" height="1" fill="#002244"/>
  <rect x="5" y="4" width="1" height="1" fill="#0088ff"/>
  <rect x="10" y="4" width="1" height="1" fill="#0088ff"/>
  <rect x="5" y="5" width="1" height="1" fill="#0088ff"/>
  <rect x="10" y="5" width="1" height="1" fill="#0088ff"/>
  <rect x="5" y="6" width="1" height="1" fill="#00ccff"/>
  <rect x="10" y="6" width="1" height="1" fill="#00ccff"/>
  <rect x="6" y="6" width="1" height="1" fill="#004488"/>
  <rect x="9" y="6" width="1" height="1" fill="#004488"/>
  <rect x="2" y="7" width="1" height="1" fill="#00ffff"/>
  <rect x="13" y="7" width="1" height="1" fill="#00ffff"/>
  <rect x="4" y="7" width="1" height="1" fill="#00ccff"/>
  <rect x="11" y="7" width="1" height="1" fill="#00ccff"/>
  <rect x="5" y="7" width="1" height="1" fill="#00ffff"/>
  <rect x="10" y="7" width="1" height="1" fill="#00ffff"/>
  <rect x="7" y="7" width="1" height="1" fill="#00ccff"/>
  <rect x="8" y="7" width="1" height="1" fill="#00ccff"/>
  <rect x="4" y="8" width="1" height="1" fill="#00ffff"/>
  <rect x="11" y="8" width="1" height="1" fill="#00ffff"/>
  <rect x="7" y="8" width="1" height="1" fill="#ffffff"/>
  <rect x="8" y="8" width="1" height="1" fill="#ffffff"/>
  <rect x="4" y="9" width="1" height="1" fill="#00ccff"/>
  <rect x="11" y="9" width="1" height="1" fill="#00ccff"/>
  <rect x="5" y="9" width="1" height="1" fill="#00ccff"/>
  <rect x="10" y="9" width="1" height="1" fill="#00ccff"/>
  <rect x="6" y="9" width="1" height="1" fill="#002244"/>
  <rect x="9" y="9" width="1" height="1" fill="#002244"/>
  <rect x="7" y="9" width="1" height="1" fill="#0088ff"/>
  <rect x="8" y="9" width="1" height="1" fill="#0088ff"/>
  <rect x="5" y="11" width="1" height="1" fill="#004488"/>
  <rect x="10" y="11" width="1" height="1" fill="#004488"/>
  <rect x="6" y="11" width="1" height="1" fill="#004488"/>
  <rect x="9" y="11" width="1" height="1" fill="#004488"/>
  <rect x="7" y="12" width="1" height="1" fill="#00ccff"/>
  <rect x="8" y="12" width="1" height="1" fill="#00ccff"/>
  <rect x="2" y="13" width="1" height="1" fill="#00ccff"/>
  <rect x="13" y="13" width="1" height="1" fill="#00ccff"/>
  <rect x="3" y="13" width="1" height="1" fill="#002244"/>
  <rect x="12" y="13" width="1" height="1" fill="#002244"/>
  <rect x="5" y="13" width="1" height="1" fill="#004488"/>
  <rect x="10" y="13" width="1" height="1" fill="#004488"/>
  <rect x="7" y="13" width="1" height="1" fill="#ffffff"/>
  <rect x="8" y="13" width="1" height="1" fill="#ffffff"/>
  <rect x="4" y="14" width="1" height="1" fill="#0088ff"/>
  <rect x="11" y="14" width="1" height="1" fill="#0088ff"/>
  <rect x="5" y="14" width="1" height="1" fill="#0088ff"/>
  <rect x="10" y="14" width="1" height="1" fill="#0088ff"/>
  <rect x="7" y="2" width="2" height="1" fill="#00ffff"/>
  <rect x="7" y="5" width="2" height="1" fill="#00ccff"/>
  <rect x="7" y="6" width="2" height="1" fill="#002244"/>
  <rect x="7" y="9" width="2" height="1" fill="#ffffff"/>
  <rect x="7" y="13" width="2" height="1" fill="#00ffff"/>
  <rect x="7" y="14" width="2" height="1" fill="#111111"/>
</svg>